<?xml version="1.0" encoding="UTF-8"?>
<svg version="1.1" xmlns="http://www.w3.org/2000/svg" width="460" height="460">
<path d="M0 0 C2.64784278 1.37607587 5.32041677 2.68647881 8 4 C8 4.66 8 5.32 8 6 C9.03447266 6.32871094 9.03447266 6.32871094 10.08984375 6.6640625 C13.75942371 8.34862136 16.55794205 10.73383257 19.5625 13.375 C20.1716626 13.90448242 20.7808252 14.43396484 21.40844727 14.97949219 C31.31084344 23.68506494 41.48068373 33.11149454 49 44 C49 44.66 49 45.32 49 46 C49.99 46.33 50.98 46.66 52 47 C53.1328125 48.59375 53.1328125 48.59375 54.125 50.5 C55.64336454 53.73982771 55.64336454 53.73982771 57 55 C57.24080268 60.4180602 57.24080268 60.4180602 56.25 62.8125 C55.84221022 66.38066058 57.86493386 68.33237146 59.875 71.1875 C60.98488281 72.78658203 60.98488281 72.78658203 62.1171875 74.41796875 C63.76226789 76.81384111 63.76226789 76.81384111 65 78 C66.093125 78.103125 67.18625 78.20625 68.3125 78.3125 C72.55139721 79.10280287 73.28936172 79.78542701 76 83 C77.29504956 85.17443911 78.48133634 87.31239163 79.625 89.5625 C80.32663421 90.91416047 81.02846652 92.26571813 81.73046875 93.6171875 C82.09833496 94.33100586 82.46620117 95.04482422 82.84521484 95.78027344 C84.01795575 98.03451452 85.21772942 100.2723162 86.42578125 102.5078125 C94.5871756 117.66559966 101.83931123 133.1499477 107.6640625 149.359375 C108.50102042 151.64020771 109.38493657 153.90493861 110.3359375 156.140625 C113.17544814 162.85219559 114.97883628 169.56824777 116.4375 176.6875 C116.72004639 177.98820435 116.72004639 177.98820435 117.00830078 179.31518555 C119.47670889 192.32806975 114.14505758 202.75025873 107.4453125 213.57421875 C106.11916084 215.80000302 104.97858804 218.03313405 103.875 220.375 C102.35207426 223.54141643 100.53477867 225.54971395 98 228 C97.690625 228.804375 97.38125 229.60875 97.0625 230.4375 C95.95660484 233.10465892 94.65468226 234.4056503 92.5625 236.3359375 C89.61559544 239.47439085 87.30086067 243.13026502 84.8671875 246.671875 C83 249 83 249 80 250 C79.731875 250.70125 79.46375 251.4025 79.1875 252.125 C77.54870191 256.09261642 74.87678661 258.86086493 72 262 C73.05058594 262.03738281 74.10117187 262.07476562 75.18359375 262.11328125 C96.46680391 263.04117344 96.46680391 263.04117344 103.625 270.75 C107.54860525 277.17044495 108.42046278 282.02450478 108.1875 289.4375 C108.17396484 290.26443359 108.16042969 291.09136719 108.14648438 291.94335938 C108.11146992 293.9625264 108.05767562 295.98135318 108 298 C108.53882813 298.22300781 109.07765625 298.44601562 109.6328125 298.67578125 C112.76885854 300.43010403 115.26386876 302.75172495 117.875 305.1875 C118.40512695 305.67855225 118.93525391 306.16960449 119.48144531 306.67553711 C123.28530733 310.23917367 126.82406977 313.85364665 130 318 C130 318.66 130 319.32 130 320 C130.66 320 131.32 320 132 320 C132.31453125 320.59167969 132.6290625 321.18335938 132.953125 321.79296875 C134.83976659 325.2764365 136.62634015 328.53842018 139.125 331.625 C140.97335597 333.96625089 142.00018922 336.17982498 143.09375 338.9375 C144.19236013 341.43778512 145.5230786 343.75223999 146.875 346.125 C150.23614755 352.19836067 152.64271992 358.48374765 155 365 C155.37253906 365.98613281 155.74507813 366.97226562 156.12890625 367.98828125 C157.83842502 372.54910069 159.28445777 377.02243767 160.43530273 381.76196289 C161.04184989 384.16586162 161.71472721 386.5438371 162.40234375 388.92578125 C165.63751262 400.21697036 168.24636275 411.35208508 169.73730469 423.00830078 C169.97095954 424.77982147 170.25172132 426.54498518 170.5390625 428.30859375 C171.32889002 433.89159024 170.84036766 437.84656596 168.59375 443.02734375 C165.25801624 447.15613186 161.92291869 448.78247171 156.72328568 449.37067509 C152.45865489 449.51791286 148.21019621 449.53363679 143.94384766 449.50793457 C142.2846198 449.51254497 140.62539604 449.51889882 138.9661808 449.52684355 C134.41196654 449.54354096 129.85808757 449.53528864 125.30387211 449.52289867 C120.39036348 449.51385221 115.47691269 449.52781591 110.56341553 449.53881836 C100.93994104 449.55661245 91.31659129 449.55275961 81.6931119 449.5411678 C73.87248491 449.53213726 66.05189291 449.53090783 58.23126221 449.53526306 C57.11853648 449.53587599 56.00581075 449.53648893 54.85936606 449.53712043 C52.59894291 449.53839932 50.33851976 449.53969618 48.07809663 449.5410108 C26.87802516 449.55241921 5.67802286 449.53929878 -15.52203727 449.51780933 C-33.71589803 449.49993813 -51.90965671 449.50304216 -70.10351562 449.52148438 C-91.22730249 449.54288646 -112.35102872 449.55132054 -133.47482491 449.53903532 C-135.72697066 449.53776111 -137.97911643 449.53650363 -140.23126221 449.53526306 C-141.89344585 449.53433741 -141.89344585 449.53433741 -143.58920896 449.53339306 C-151.40118259 449.52993817 -159.21311778 449.53577149 -167.02508545 449.54518127 C-176.54421893 449.55639527 -186.06322046 449.55337379 -195.58233881 449.5320583 C-200.4399177 449.52153986 -205.29727652 449.51743963 -210.15485382 449.53065491 C-214.60104448 449.54256812 -219.04681094 449.53603396 -223.49296308 449.5147447 C-225.10188097 449.51027409 -226.71083465 449.51255521 -228.31972957 449.52224785 C-243.28350873 449.60548515 -243.28350873 449.60548515 -249 445 C-251.6909524 441.66928685 -253.00787259 437.814096 -252.98925781 433.5246582 C-252.89483398 432.66702881 -252.80041016 431.80939941 -252.703125 430.92578125 C-252.59742188 429.96293213 -252.49171875 429.00008301 -252.3828125 428.00805664 C-247.98916642 393.48374962 -247.98916642 393.48374962 -241 383 C-237.875 382.8125 -237.875 382.8125 -235 383 C-234.24605188 380.27557393 -233.52169087 377.54858969 -232.8125 374.8125 C-232.59658203 374.04357422 -232.38066406 373.27464844 -232.15820312 372.48242188 C-230.8714393 367.75854153 -230.8714393 367.75854153 -232.44140625 363.265625 C-232.95574219 362.51796875 -233.47007812 361.7703125 -234 361 C-233.64481791 353.50565791 -229.47806323 346.96330947 -225.6484375 340.7421875 C-223.74220557 337.57115714 -222.34542284 334.43830281 -221 331 C-220.67 330.34 -220.34 329.68 -220 329 C-219.34 329 -218.68 329 -218 329 C-217.71125 328.2575 -217.4225 327.515 -217.125 326.75 C-216.75375 325.8425 -216.3825 324.935 -216 324 C-215.731875 323.34 -215.46375 322.68 -215.1875 322 C-213.54046387 319.22604441 -211.28756383 317.27463975 -209 315 C-206.71596793 312.49986592 -204.44408642 309.99099872 -202.19335938 307.4609375 C-199.02599141 303.9566155 -195.75663109 300.87427189 -192 298 C-191.34 298 -190.68 298 -190 298 C-190.05800781 296.81664062 -190.11601562 295.63328125 -190.17578125 294.4140625 C-190.77272047 277.15759028 -190.77272047 277.15759028 -185 270 C-176.84415432 261.70558412 -164.81366139 262.49868827 -154 262 C-154.40089844 261.55011719 -154.80179687 261.10023438 -155.21484375 260.63671875 C-176 237.11791383 -176 237.11791383 -176 233 C-176.99 232.67 -177.98 232.34 -179 232 C-182 226.77777778 -182 226.77777778 -182 224 C-182.66 224 -183.32 224 -184 224 C-184.43699219 223.19949219 -184.43699219 223.19949219 -184.8828125 222.3828125 C-187.2017676 218.16785638 -189.58935391 214.02622932 -192.125 209.9375 C-194.65042348 205.73493631 -196.62801895 201.70777811 -198 197 C-198.22816406 196.23042969 -198.45632812 195.46085938 -198.69140625 194.66796875 C-200.37342782 187.95046122 -199.58145975 182.66020476 -198 176 C-197.82597656 175.06027344 -197.65195313 174.12054688 -197.47265625 173.15234375 C-194.86725056 159.95502735 -189.45815044 147.33598269 -183.94897461 135.11279297 C-183.06494522 133.14459375 -182.20656489 131.16787657 -181.359375 129.18359375 C-176.06850676 116.83660607 -170.4460801 104.65822636 -163.36328125 93.22265625 C-162.00829726 91.01352762 -160.74501852 88.77265286 -159.5 86.5 C-156.79639664 81.58672082 -153.91651464 76.78922404 -151 72 C-150.53078125 71.21625 -150.0615625 70.4325 -149.578125 69.625 C-148.92070312 68.5421875 -148.92070312 68.5421875 -148.25 67.4375 C-147.86328125 66.79683594 -147.4765625 66.15617187 -147.078125 65.49609375 C-146 64 -146 64 -144 63 C-143.05453338 61.28334481 -143.05453338 61.28334481 -142.1875 59.25 C-140.35036794 55.40436163 -138.10402699 52.94484612 -135 50 C-133.97388051 48.34928604 -132.97691857 46.68029994 -132 45 C-128.67058732 40.23398943 -125.14726152 36.08381245 -121 32 C-119.73643968 30.7049192 -118.47489376 29.40787142 -117.21484375 28.109375 C-101.06037797 11.5890908 -101.06037797 11.5890908 -92 6 C-91.34 6 -90.68 6 -90 6 C-90 5.34 -90 4.68 -90 4 C-60.59305243 -12.62504795 -30.20045739 -17.97844908 0 0 Z " fill="#010202" transform="translate(271,11)"/>
<path d="M0 0 C1.36285875 -0.01059839 1.36285875 -0.01059839 2.75325 -0.02141088 C3.75274744 -0.0189958 4.75224487 -0.01658071 5.78203011 -0.01409245 C6.84278916 -0.01932912 7.90354822 -0.0245658 8.9964515 -0.02996117 C12.56858017 -0.04502262 16.14056638 -0.04566767 19.71272469 -0.04633427 C22.26660086 -0.05395158 24.82047474 -0.06237833 27.37434578 -0.07155704 C34.32470197 -0.09355029 41.27500849 -0.10232881 48.22539473 -0.10738349 C52.56412366 -0.11063888 56.9028437 -0.11716036 61.24156761 -0.12438488 C73.25137929 -0.14395174 85.26118271 -0.16035565 97.27101135 -0.16326141 C98.42408498 -0.16354277 98.42408498 -0.16354277 99.60045303 -0.16382981 C101.15886251 -0.16419606 102.717272 -0.16455976 104.27568148 -0.16492092 C105.0492905 -0.16510373 105.82289953 -0.16528654 106.61995125 -0.16547489 C107.39450303 -0.16565544 108.16905482 -0.16583599 108.96707787 -0.16602201 C121.52158065 -0.16956473 134.07591202 -0.19659273 146.63035534 -0.23397278 C159.51601508 -0.27203242 172.4015897 -0.29141871 185.2873069 -0.29172093 C192.52376105 -0.292306 199.76001069 -0.30082998 206.99641228 -0.32971859 C213.80083831 -0.35675758 220.60479041 -0.3581574 227.40927315 -0.34206295 C229.90987339 -0.34024093 232.41049647 -0.34700648 234.91104698 -0.36288166 C238.31872306 -0.38320078 241.72496006 -0.37287236 245.13261604 -0.35466862 C246.12765203 -0.36786858 247.12268802 -0.38106855 248.14787662 -0.39466852 C252.82410362 -0.33741167 254.88948623 -0.28249367 258.67503738 2.67348289 C284.92810419 38.2397797 261.58430672 91.05389766 261.58430672 135.26006222 C171.82430672 135.26006222 82.06430672 135.26006222 -10.41569328 135.26006222 C-10.41569328 7.26006222 -10.41569328 7.26006222 -7.41569328 2.26006222 C-4.27830308 0.16846875 -3.57024498 0.00886202 0 0 Z " fill="#CCCCCC" transform="translate(104.41569328308105,287.7399377822876)"/>
<path d="M0 0 C1.73479614 0.00858032 1.73479614 0.00858032 3.50463867 0.01733398 C12.17232471 0.19896827 18.59351423 1.2640466 26.25 5.5 C27.97283203 6.36625 27.97283203 6.36625 29.73046875 7.25 C35.00329837 9.96541947 39.64126321 12.77017295 44.25 16.5 C45.01699219 16.93054688 45.78398437 17.36109375 46.57421875 17.8046875 C50.49627873 20.28961309 53.70362529 23.43534504 57.0625 26.625 C57.77301514 27.29499023 58.48353027 27.96498047 59.21557617 28.65527344 C63.62004058 32.84499684 67.83765841 37.12295592 71.76953125 41.765625 C73.19187337 43.43190443 74.69534955 44.95830497 76.25 46.5 C79.25 50.16666667 79.25 50.16666667 79.25 52.5 C80.24 52.83 81.23 53.16 82.25 53.5 C82.8275 54.655 83.405 55.81 84 57 C84.95080694 58.92495068 84.95080694 58.92495068 86.25 60.5 C89.71537413 61.49510849 89.71537413 61.49510849 93.25 61.5 C95.19921875 61.64453125 95.19921875 61.64453125 97.25 62.5 C99.42578125 65.08203125 99.42578125 65.08203125 101.5625 68.3125 C102.28050781 69.37082031 102.99851562 70.42914063 103.73828125 71.51953125 C105.25 74.5 105.25 74.5 105.04296875 76.82421875 C104.25 78.5 104.25 78.5 103.25 79.5 C102.71548514 84.62243408 103.90731726 87.16564286 106.75 91.375 C111.18645096 98.17901347 114.758791 105.27353721 118.30175781 112.57275391 C119.17416721 114.34587434 120.08159169 116.10165305 120.9921875 117.85546875 C127.39146758 130.19693748 133.07002084 143.23022489 137.25 156.5 C131.73231511 154.86977492 131.73231511 154.86977492 129.375 153.0625 C126.90269219 151.24462661 124.33486168 150.37732823 121.47021484 149.33178711 C119.34346943 148.53501763 117.25870091 147.67678954 115.171875 146.78125 C108.10607697 143.75520691 101.25036574 140.96780016 93.71875 139.3125 C90.84874089 138.64024561 88.04796531 137.88334745 85.21875 137.0625 C74.67007603 134.01471416 64.56826898 131.70998797 53.63916016 130.73730469 C47.79342598 130.15667383 41.97216317 129.32248057 36.14892578 128.55200195 C13.00605087 125.59095411 -10.30688787 125.58458231 -33.5 127.875 C-35.41607056 128.06400879 -35.41607056 128.06400879 -37.37084961 128.25683594 C-43.53474715 128.91346685 -49.56964758 129.7640229 -55.63085938 131.0625 C-58.44564426 131.64361688 -61.27139921 131.97872407 -64.125 132.3125 C-84.45738575 135.15726981 -104.31638151 141.56329639 -122.75 150.5 C-124.03739561 151.05174097 -125.32831863 151.59545021 -126.625 152.125 C-130.17654636 153.6876804 -133.41233965 155.52465 -136.75 157.5 C-136.18634618 152.59996949 -134.60322139 148.6253768 -132.4375 144.25 C-130.32886279 139.87938965 -128.30136992 135.53497274 -126.5625 131 C-125.44996386 128.12357108 -124.24922369 125.47212718 -122.6875 122.8125 C-121.09225388 120.08514374 -119.87139661 117.42687734 -118.64916992 114.52709961 C-116.92363546 110.63703372 -114.92181132 106.88783391 -112.9375 103.125 C-112.49462646 102.28300049 -112.05175293 101.44100098 -111.59545898 100.57348633 C-108.94450756 95.5894654 -106.16505901 90.81195859 -102.90625 86.1953125 C-101.59321475 84.35690007 -101.59321475 84.35690007 -100.3125 81.5625 C-97.92732598 76.88755892 -94.80232409 72.75949325 -91.75 68.5 C-90.49717939 66.73116106 -89.24709379 64.96038121 -88 63.1875 C-87.44828125 62.40761719 -86.8965625 61.62773438 -86.328125 60.82421875 C-85.23127959 59.20881524 -84.19430043 57.55179365 -83.20703125 55.8671875 C-81.42668892 52.97472785 -79.14560803 50.89560803 -76.75 48.5 C-76.43546875 47.84644531 -76.1209375 47.19289062 -75.796875 46.51953125 C-74.63997723 44.28775457 -73.53303666 43.28314065 -71.5625 41.75 C-68.99129703 39.63531674 -66.81189954 37.49864157 -64.6875 34.9375 C-61.2989863 30.96634593 -57.61258735 27.3831633 -53.8125 23.8125 C-53.23943115 23.26585693 -52.6663623 22.71921387 -52.07592773 22.15600586 C-45.58224 16.12464595 -38.09807004 12.01398316 -30.3125 7.875 C-29.61318359 7.4934375 -28.91386719 7.111875 -28.19335938 6.71875 C-18.73861754 1.68316665 -10.74967217 -0.06145337 0 0 Z " fill="#1D5F8A" transform="translate(229.75,13.5)"/>
<path d="M0 0 C3.3 0 6.6 0 10 0 C10.350625 1.32 10.70125 2.64 11.0625 4 C12.83516871 9.26807181 15.56954019 13.57870048 20 17 C25.63147073 19.01821232 30.71208692 19.29350414 36.66015625 19.265625 C37.56825546 19.26753845 38.47635468 19.2694519 39.41197205 19.27142334 C41.32225829 19.27277815 43.23255396 19.26913117 45.14282227 19.26074219 C48.05701454 19.25002018 50.97059217 19.26066789 53.88476562 19.2734375 C55.74739719 19.27211602 57.61002836 19.26955387 59.47265625 19.265625 C60.77131371 19.27169769 60.77131371 19.27169769 62.09620667 19.27789307 C66.75253797 19.24199905 70.69194904 18.98547469 75 17 C78.94730636 11.77248618 79.6018458 7.47000569 80 1 C83.3 1 86.6 1 90 1 C89.13689707 17.97435758 79.96350299 33.52230691 69 46 C68.04867187 47.15048828 68.04867187 47.15048828 67.078125 48.32421875 C63.71648619 52.34777317 60.59467252 55.43553162 56 58 C55.34 58 54.68 58 54 58 C53.67 58.99 53.34 59.98 53 61 C51.46875 62.02734375 51.46875 62.02734375 49.5 62.9375 C48.78199219 63.27378418 48.06398438 63.61006836 47.32421875 63.95654297 C46.55722656 64.30088379 45.79023438 64.64522461 45 65 C44.22269531 65.35594238 43.44539063 65.71188477 42.64453125 66.07861328 C37.51556534 68.3971722 32.43271419 70.50515533 27 72 C26.36787598 72.17700439 25.73575195 72.35400879 25.08447266 72.53637695 C3.04333313 78.07954728 -19.56581019 73.87963673 -39 63 C-39.97710937 62.46375 -40.95421875 61.9275 -41.9609375 61.375 C-42.63382813 60.92125 -43.30671875 60.4675 -44 60 C-44 59.34 -44 58.68 -44 58 C-44.556875 57.731875 -45.11375 57.46375 -45.6875 57.1875 C-46.450625 56.795625 -47.21375 56.40375 -48 56 C-48.763125 55.62875 -49.52625 55.2575 -50.3125 54.875 C-54.24541354 52.13110683 -56.98194752 48.70105469 -60 45 C-60.80050781 44.05898437 -61.60101563 43.11796875 -62.42578125 42.1484375 C-71.6421471 31.03106418 -80 15.78499056 -80 1 C-76.7 1 -73.4 1 -70 1 C-69.87625 3.0109375 -69.87625 3.0109375 -69.75 5.0625 C-69.19033072 9.99069893 -67.94180268 12.99587969 -65 17 C-60.40239265 19.64300516 -55.5359048 19.30605625 -50.38671875 19.30078125 C-49.45833694 19.30506638 -48.52995514 19.3093515 -47.57344055 19.31376648 C-45.61252659 19.31949873 -43.65159136 19.32001819 -41.69067383 19.31567383 C-38.70812169 19.31252179 -35.72656969 19.33595937 -32.74414062 19.36132812 C-30.83333458 19.36360219 -28.92252588 19.36430412 -27.01171875 19.36328125 C-25.68632332 19.37709587 -25.68632332 19.37709587 -24.33415222 19.39118958 C-17.77764517 19.34281058 -12.07010812 18.41222781 -6.7578125 14.23828125 C-2.81283705 9.58547527 -0.97162757 6.04568268 0 0 Z " fill="#FDDDB6" transform="translate(225,181)"/>
<path d="M0 0 C28.11334187 -1.02304738 28.11334187 -1.02304738 39 5 C40.14855469 5.5775 41.29710937 6.155 42.48046875 6.75 C47.75329837 9.46541947 52.39126321 12.27017295 57 16 C58.15048828 16.64582031 58.15048828 16.64582031 59.32421875 17.3046875 C63.24627873 19.78961309 66.45362529 22.93534504 69.8125 26.125 C70.52301514 26.79499023 71.23353027 27.46498047 71.96557617 28.15527344 C76.37004058 32.34499684 80.58765841 36.62295592 84.51953125 41.265625 C85.94187337 42.93190443 87.44534955 44.45830497 89 46 C92 49.66666667 92 49.66666667 92 52 C93.485 52.495 93.485 52.495 95 53 C95.5775 54.155 96.155 55.31 96.75 56.5 C97.70080694 58.42495068 97.70080694 58.42495068 99 60 C102.46537413 60.99510849 102.46537413 60.99510849 106 61 C107.94921875 61.14453125 107.94921875 61.14453125 110 62 C112.17578125 64.58203125 112.17578125 64.58203125 114.3125 67.8125 C115.03050781 68.87082031 115.74851562 69.92914063 116.48828125 71.01953125 C118 74 118 74 117.79296875 76.32421875 C117 78 117 78 116 79 C115.46548514 84.12243408 116.65731726 86.66564286 119.5 90.875 C123.93645096 97.67901347 127.508791 104.77353721 131.05175781 112.07275391 C131.92416721 113.84587434 132.83159169 115.60165305 133.7421875 117.35546875 C140.14146758 129.69693748 145.82002084 142.73022489 150 156 C144.48231511 154.36977492 144.48231511 154.36977492 142.125 152.5625 C139.65269219 150.74462661 137.08486168 149.87732823 134.22021484 148.83178711 C132.09346943 148.03501763 130.00870091 147.17678954 127.921875 146.28125 C119.7280943 142.77544846 111.77748635 139.77579204 103 138 C103.66 137.67 104.32 137.34 105 137 C103.47627251 131.90936497 101.79761329 127.41536417 99.01953125 122.84765625 C97.88057804 120.78357629 97.07569786 118.70792336 96.25 116.5 C92.50976968 106.85491788 87.40645752 97.49025677 81.32421875 89.125 C79.87940339 86.80647623 78.91659033 84.39535894 77.87280273 81.87792969 C76.33317476 78.56525322 74.25591108 75.62571295 72.1875 72.625 C71.28763928 71.30086356 70.38789911 69.9766452 69.48828125 68.65234375 C69.05725098 68.02183105 68.6262207 67.39131836 68.18212891 66.74169922 C66.7135667 64.57798117 65.29557492 62.38293397 63.875 60.1875 C61.16859224 56.13167885 58.18393054 52.34306649 55.09765625 48.5703125 C53.74864462 46.91733364 52.42104711 45.24651869 51.12109375 43.5546875 C38.36347085 27.22692747 23.55304261 13.64185305 5.53125 3.4453125 C3.64492007 2.3682414 1.80735473 1.20490316 0 0 Z " fill="#12526F" transform="translate(217,14)"/>
<path d="M0 0 C1.77433812 0.93084971 3.54435149 1.86994613 5.3125 2.8125 C6.29863281 3.33457031 7.28476562 3.85664063 8.30078125 4.39453125 C10.62843471 5.77899662 12.31495482 6.90088229 14 9 C14 9.66 14 10.32 14 11 C14.598125 11.226875 15.19625 11.45375 15.8125 11.6875 C18.8027502 13.48165012 19.74484659 14.72265498 21 18 C20.11450795 28.98010138 12.99089914 39.99930564 6.23046875 48.4453125 C4.86845691 50.09765781 4.86845691 50.09765781 3.5 52.5 C-0.34894514 58.91490856 -5.292985 64.6546538 -9.9765625 70.46875 C-12.51372171 73.642648 -14.99011478 76.8611716 -17.45703125 80.08984375 C-18.88282048 81.85493472 -20.38920031 83.40642812 -22 85 C-22.86439144 86.05419846 -23.71895797 87.11654538 -24.5625 88.1875 C-25.366875 89.115625 -26.17125 90.04375 -27 91 C-27.66 91 -28.32 91 -29 91 C-29.66 92.65 -30.32 94.3 -31 96 C-37.60166847 96.15225192 -44.20288369 96.257257 -50.8059082 96.32958984 C-53.05152301 96.35974538 -55.29702021 96.40067698 -57.54223633 96.45263672 C-60.77194229 96.52550334 -64.00009025 96.55946915 -67.23046875 96.5859375 C-68.23272995 96.61690521 -69.23499115 96.64787292 -70.2676239 96.67977905 C-77.07897056 96.6830608 -77.07897056 96.6830608 -79.74549866 94.70549011 C-82.88558286 91.0451288 -84.18064651 87.98246635 -83.94921875 83.2421875 C-81.80442839 78.17589258 -75.65886239 76.32943119 -71 74 C-54.07164496 63.32110246 -36.15904548 45.21063573 -31.29296875 25.07421875 C-31.14794922 24.04748047 -31.14794922 24.04748047 -31 23 C-30.17757812 22.97421875 -29.35515625 22.9484375 -28.5078125 22.921875 C-20.61956268 22.52108633 -12.5583435 22.03111341 -6.37890625 16.56640625 C-2.51557099 11.78595877 -1.3103504 5.89125017 0 0 Z " fill="#12526E" transform="translate(354,179)"/>
<path d="M0 0 C0.15855469 0.71285156 0.31710938 1.42570313 0.48046875 2.16015625 C2.16792096 9.08710095 3.77111235 15.05150051 9.83203125 19.27734375 C16.4762815 22.74122931 23.64026194 22.79061912 31 23 C31.495 24.794375 31.495 24.794375 32 26.625 C38.56119487 46.09496431 53.51547844 63.59184467 71 74 C71.91910156 74.44472656 72.83820313 74.88945312 73.78515625 75.34765625 C80.59066271 78.78391056 80.59066271 78.78391056 81.8046875 82.390625 C82.06570625 87.51887567 81.14630442 90.70854606 77.70552063 94.69659424 C74.25378498 97.33450553 70.09364257 96.89338937 65.9140625 96.8671875 C64.93891693 96.8776712 63.96377136 96.88815491 62.95907593 96.8989563 C60.89983928 96.91178085 58.84045597 96.90914264 56.78125 96.89208984 C53.64055408 96.87508422 50.50716238 96.93254547 47.3671875 96.99609375 C45.36198134 96.99931887 43.35676236 96.99816059 41.3515625 96.9921875 C40.4190567 97.01465546 39.4865509 97.03712341 38.52578735 97.06027222 C34.56829959 96.97630434 32.00912699 96.83355265 28.89175415 94.25856018 C27.11714166 92.24520664 25.54522294 90.1921723 24 88 C22.73542969 86.50533203 22.73542969 86.50533203 21.4453125 84.98046875 C18.96049083 81.9894797 16.47886496 78.99592881 14 76 C13.22140625 75.06671875 12.4428125 74.1334375 11.640625 73.171875 C4.97449166 65.12654166 -1.37722599 56.89306141 -6.79296875 47.9453125 C-8.10645683 45.82842879 -9.51780992 43.79699501 -10.9375 41.75 C-21.3276667 26.19166748 -21.3276667 26.19166748 -21 18 C-18.07462687 12.35820896 -18.07462687 12.35820896 -14 11 C-13.72285156 10.39671875 -13.44570312 9.7934375 -13.16015625 9.171875 C-11.53426775 6.12812414 -9.35915581 5.03270524 -6.4375 3.25 C-5.44621094 2.63640625 -4.45492187 2.0228125 -3.43359375 1.390625 C-1 0 -1 0 0 0 Z " fill="#12526E" transform="translate(106,179)"/>
<path d="M0 0 C0.33 0 0.66 0 1 0 C1 31.68 1 63.36 1 96 C-3.455 96.99 -3.455 96.99 -8 98 C-12.8629064 100.73641513 -16.14480043 104.74360122 -18 110 C-18.33 112.97 -18.66 115.94 -19 119 C-28.57 119 -38.14 119 -48 119 C-48 113.84971019 -47.82519539 110.35505033 -46.72265625 105.515625 C-46.45646484 104.33355469 -46.19027344 103.15148437 -45.91601562 101.93359375 C-45.63435547 100.71800781 -45.35269531 99.50242187 -45.0625 98.25 C-44.78470703 97.01894531 -44.50691406 95.78789062 -44.22070312 94.51953125 C-42.1796875 85.5390625 -42.1796875 85.5390625 -41 82 C-40.8558058 80.00346488 -40.7794341 78.00151894 -40.75 76 C-40.72421875 74.948125 -40.6984375 73.89625 -40.671875 72.8125 C-40.67989567 69.95227136 -40.67989567 69.95227136 -42.625 68.6328125 C-43.07875 68.09398437 -43.5325 67.55515625 -44 67 C-43.58235122 64.13015626 -43.0461337 61.6371956 -42.25 58.875 C-42.0540625 58.13378906 -41.858125 57.39257812 -41.65625 56.62890625 C-40.18268327 51.18268327 -40.18268327 51.18268327 -39 50 C-37.88625 49.9175 -36.7725 49.835 -35.625 49.75 C-31.9780771 49.41787295 -31.9780771 49.41787295 -30.6015625 47.08984375 C-30.07304688 46.07019531 -29.54453125 45.05054688 -29 44 C-28.42983154 42.90244385 -28.42983154 42.90244385 -27.84814453 41.78271484 C-26.95485266 40.05747159 -26.06591963 38.32996654 -25.18066406 36.60058594 C-20.94034285 28.3370248 -16.73447928 20.3434339 -11 13 C-10.36964844 12.14664062 -9.73929688 11.29328125 -9.08984375 10.4140625 C-5.56532795 5.70988331 -5.56532795 5.70988331 -4 4 C-3.34 4 -2.68 4 -2 4 C-1.34 2.68 -0.68 1.36 0 0 Z " fill="#1D5F8A" transform="translate(80,327)"/>
<path d="M0 0 C15.59993492 12.99994576 27.90605765 34.46481833 33.1484375 54.0625 C34.0065269 57.0225148 35.14378066 59.64370118 36.4375 62.4375 C39.65161945 69.87138365 41.11002337 77.69329546 42.80078125 85.578125 C44.01457188 91.2104275 45.53917926 96.7057214 47.203125 102.22265625 C48.36411121 107.72595851 48.56862583 113.39213578 49 119 C39.43 119 29.86 119 20 119 C19.67 116.03 19.34 113.06 19 110 C16.97127633 105.02962702 13.6340317 100.73829146 9 98 C6.03 97.34 3.06 96.68 0 96 C0 64.32 0 32.64 0 0 Z " fill="#12526F" transform="translate(379,327)"/>
<path d="M0 0 C1.61139028 -0.00391162 1.61139028 -0.00391162 3.2553339 -0.00790226 C5.04755957 -0.00455618 5.04755957 -0.00455618 6.87599182 -0.0011425 C8.13387481 -0.00270249 9.39175779 -0.00426248 10.68775845 -0.00586975 C14.19526217 -0.01006743 17.70273889 -0.00797041 21.21024275 -0.00488353 C24.98669594 -0.00263142 28.76314431 -0.00610809 32.53959656 -0.00886345 C39.9439937 -0.01332218 47.34838074 -0.01234422 54.75277829 -0.00945081 C60.7677171 -0.00719718 66.78265306 -0.00688408 72.79759216 -0.00797462 C74.07917274 -0.00820447 74.07917274 -0.00820447 75.38664383 -0.00843897 C77.12203256 -0.00875868 78.8574213 -0.00908289 80.59281003 -0.00941156 C96.88541952 -0.01226665 113.17802339 -0.00897887 129.47063196 -0.00361119 C143.46618767 0.00085687 157.46173509 0.00008095 171.45729065 -0.00452995 C187.68953749 -0.0098752 203.92177939 -0.01199196 220.15402699 -0.00891769 C221.88321749 -0.00859912 223.612408 -0.00828475 225.34159851 -0.00797462 C226.19250877 -0.00782035 227.04341904 -0.00766607 227.92011446 -0.00750712 C233.9314396 -0.00664182 239.94276164 -0.00810513 245.9540863 -0.01045418 C253.27469581 -0.01325183 260.59529459 -0.01251466 267.91590285 -0.00717343 C271.65468165 -0.00453594 275.39344253 -0.00353216 279.13222122 -0.00682259 C283.1758962 -0.01032766 287.21952549 -0.00615735 291.26319885 -0.0011425 C292.45801597 -0.00337322 293.65283308 -0.00560395 294.88385677 -0.00790226 C295.95811696 -0.00529452 297.03237715 -0.00268677 298.13919067 0 C299.54125432 0.00024353 299.54125432 0.00024353 300.97164249 0.00049198 C303.06959534 0.12584114 303.06959534 0.12584114 304.06959534 1.12584114 C304.19459534 4.62584114 304.19459534 4.62584114 304.06959534 8.12584114 C302.40644902 9.78898746 300.42637982 9.25128501 298.13919067 9.25168228 C296.52780039 9.2555939 296.52780039 9.2555939 294.88385677 9.25958455 C293.0916311 9.25623846 293.0916311 9.25623846 291.26319885 9.25282478 C290.00531587 9.25438477 288.74743288 9.25594476 287.45143223 9.25755203 C283.94392851 9.26174971 280.43645178 9.2596527 276.92894793 9.25656581 C273.15249474 9.2543137 269.37604636 9.25779037 265.59959412 9.26054573 C258.19519697 9.26500446 250.79080993 9.26402651 243.38641238 9.26113309 C237.37147358 9.25887946 231.35653762 9.25856636 225.34159851 9.25965691 C224.06001794 9.25988676 224.06001794 9.25988676 222.75254685 9.26012125 C221.01715811 9.26044096 219.28176937 9.26076517 217.54638064 9.26109384 C201.25377115 9.26394893 184.96116728 9.26066115 168.66855872 9.25529347 C154.67300301 9.25082541 140.67745559 9.25160133 126.68190002 9.25621223 C110.44965319 9.26155748 94.21741128 9.26367424 77.98516369 9.26059997 C76.25597318 9.2602814 74.52678267 9.25996703 72.79759216 9.25965691 C71.9466819 9.25950263 71.09577164 9.25934836 70.21907622 9.2591894 C64.20775107 9.2583241 58.19642904 9.25978741 52.18510437 9.26213646 C44.86449486 9.26493411 37.54389609 9.26419695 30.22328782 9.25885572 C26.48450902 9.25621822 22.74574814 9.25521444 19.00696945 9.25850487 C14.96329447 9.26200994 10.91966519 9.25783963 6.87599182 9.25282478 C5.68117471 9.25505551 4.48635759 9.25728623 3.2553339 9.25958455 C2.18107371 9.2569768 1.10681353 9.25436905 0 9.25168228 C-1.40206365 9.25143875 -1.40206365 9.25143875 -2.83245182 9.2511903 C-4.93040466 9.12584114 -4.93040466 9.12584114 -5.93040466 8.12584114 C-6.05540466 4.62584114 -6.05540466 4.62584114 -5.93040466 1.12584114 C-4.26725834 -0.53730518 -2.28718914 0.00039727 0 0 Z " fill="#9B9C9F" transform="translate(80.93040466308594,436.87415885925293)"/>
<path d="M0 0 C1.39165132 0.74034832 2.76816308 1.51012689 4.125 2.3125 C4.75019531 2.62832031 5.37539062 2.94414062 6.01953125 3.26953125 C12.10131563 6.80730125 14.97445837 12.80749286 17.125 19.3125 C18.13110356 26.54490018 17.78706259 32.87232096 14.125 39.3125 C13.7846875 39.97894531 13.444375 40.64539063 13.09375 41.33203125 C9.53577535 47.81091076 4.89179954 50.51470931 -1.625 53.625 C-9.40426446 55.27061364 -16.82716937 55.24302093 -23.875 51.3125 C-24.54273438 50.9721875 -25.21046875 50.631875 -25.8984375 50.28125 C-32.29817834 46.760203 -35.3914 42.1793298 -37.9765625 35.44140625 C-40.19338604 27.7210773 -39.76405796 20.27702015 -36.5 12.9375 C-29.37981356 0.15160701 -13.70956174 -5.81831916 0 0 Z " fill="#030303" transform="translate(240.875,335.6875)"/>
<path d="M0 0 C3.3 0 6.6 0 10 0 C9.13689707 16.97435758 -0.03649701 32.52230691 -11 45 C-11.95132813 46.15048828 -11.95132813 46.15048828 -12.921875 47.32421875 C-16.28351381 51.34777317 -19.40532748 54.43553162 -24 57 C-24.66 57 -25.32 57 -26 57 C-26.33 57.99 -26.66 58.98 -27 60 C-28.53125 61.02734375 -28.53125 61.02734375 -30.5 61.9375 C-31.21800781 62.27378418 -31.93601562 62.61006836 -32.67578125 62.95654297 C-33.44277344 63.30088379 -34.20976562 63.64522461 -35 64 C-35.77730469 64.35594238 -36.55460937 64.71188477 -37.35546875 65.07861328 C-42.48512177 67.39748281 -47.5680421 69.5008778 -53 71 C-53.62124756 71.17917969 -54.24249512 71.35835938 -54.88256836 71.54296875 C-61.76917319 73.31435701 -68.48863343 73.22678225 -75.5625 73.125 C-76.76197266 73.11597656 -77.96144531 73.10695313 -79.19726562 73.09765625 C-82.13172309 73.07427412 -85.06575234 73.0415028 -88 73 C-85.35045041 71.23363361 -82.82538608 70.07611535 -79.90625 68.8515625 C-75.41725995 66.84623498 -71.42130724 64.57005973 -68 61 C-66.576875 60.071875 -66.576875 60.071875 -65.125 59.125 C-59.42166585 55.24673278 -55.59703994 50.29265074 -51.55078125 44.79296875 C-51.03902344 44.20128906 -50.52726562 43.60960937 -50 43 C-49.34 43 -48.68 43 -48 43 C-47.02461924 40.62771715 -46.08515128 38.26502075 -45.30029297 35.82226562 C-43.25783588 29.64653018 -41.02646548 23.3485042 -36 19 C-28.79480036 16.58995485 -21.13303185 17.4620294 -13.66870117 17.94067383 C-10.3724751 18.0139501 -7.93417425 17.51285832 -5 16 C-1.05269364 10.77248618 -0.3981542 6.47000569 0 0 Z " fill="#F1CDA4" transform="translate(305,182)"/>
<path d="M0 0 C14.19 0 28.38 0 43 0 C43 14.63636364 43 14.63636364 39 19 C38 20 38 20 34.39819336 20.11352539 C32.79540144 20.11336625 31.1926044 20.10767063 29.58984375 20.09765625 C28.74780899 20.0962413 27.90577423 20.09482635 27.03822327 20.09336853 C24.33794665 20.08775263 21.63775172 20.07519748 18.9375 20.0625 C17.11132932 20.05748705 15.28515734 20.05292379 13.45898438 20.04882812 C8.97259915 20.03862716 4.48639145 20.01905499 0 20 C0 13.4 0 6.8 0 0 Z " fill="#4C4C4C" transform="translate(169,168)"/>
<path d="M0 0 C14.19 0 28.38 0 43 0 C43 6.6 43 13.2 43 20 C37.96408231 20.06898517 32.92981308 20.12868238 27.89379883 20.16479492 C26.18182816 20.1798534 24.46989589 20.20030455 22.75805664 20.22631836 C20.29303495 20.2628319 17.82852465 20.27975562 15.36328125 20.29296875 C14.22080681 20.31619453 14.22080681 20.31619453 13.05525208 20.33988953 C8.52032004 20.34131599 5.53994093 19.91589839 2 17 C0 13 0 13 0 0 Z " fill="#4C4C4C" transform="translate(248,168)"/>
<path d="M0 0 C3.49458593 2.02685984 4.38486679 3.23584136 6.125 6.8125 C6.9802344 11.67871742 7.25804791 16.652742 4.91796875 21.11328125 C1.53027211 25.25570525 -0.95856814 26.42657351 -6.20703125 27.12109375 C-11.11364592 27.37608317 -14.10389351 27.19289725 -17.9375 23.9375 C-21.58689611 20.38255885 -22.04973054 18.08696078 -22.125 13 C-22.15078125 11.96230469 -22.1765625 10.92460937 -22.203125 9.85546875 C-21.83008335 6.39595153 -20.93228435 4.59129639 -18.875 1.8125 C-13.09109071 -2.18115165 -6.50625593 -2.40717714 0 0 Z " fill="#FAFAFA" transform="translate(237.875,349.1875)"/>
<path d="M0 0 C39.22035649 -0.02286485 78.44071211 -0.04049745 117.66107392 -0.05106533 C122.2863377 -0.05231611 126.91160147 -0.05361042 131.53686523 -0.05493164 C132.45771227 -0.05519395 133.37855931 -0.05545626 134.32731081 -0.05572652 C149.25784686 -0.06008354 164.18837909 -0.06797126 179.11891287 -0.0771528 C194.42719544 -0.08648845 209.73547601 -0.09205542 225.04376131 -0.09408849 C234.49767203 -0.09546391 243.95157193 -0.09981547 253.40547932 -0.10791647 C259.8792522 -0.11318284 266.35301945 -0.11480455 272.82679432 -0.11350138 C276.56759286 -0.11285783 280.30837242 -0.11387742 284.04916763 -0.11920547 C288.09508251 -0.12492637 292.14095642 -0.12300119 296.18687439 -0.12025452 C297.98012324 -0.12462378 297.98012324 -0.12462378 299.80959934 -0.12908131 C300.88447623 -0.12709026 301.95935311 -0.12509921 303.06680202 -0.12304783 C304.0020532 -0.12342755 304.93730437 -0.12380727 305.90089649 -0.1241985 C308 0 308 0 309 1 C309.125 4.5 309.125 4.5 309 8 C308 9 308 9 304.12280273 9.11352539 C302.39305833 9.11336621 300.66330919 9.10766849 298.93359375 9.09765625 C298.02497086 9.0962413 297.11634796 9.09482635 296.18019104 9.09336853 C293.26592779 9.08775193 290.35174019 9.07519665 287.4375 9.0625 C285.46679798 9.05748714 283.49609476 9.05292386 281.52539062 9.04882812 C276.68356441 9.03777711 271.84179505 9.02050138 267 9 C267 6.36 267 3.72 267 1 C178.89 1 90.78 1 0 1 C0 0.67 0 0.34 0 0 Z " fill="#85878A" transform="translate(76,437)"/>
<path d="M0 0 C3.61328125 0.73242188 3.61328125 0.73242188 7.2265625 1.46484375 C14.6108154 2.88969255 21.61281602 3.21726717 29.125 3.25 C30.86523438 3.2809375 30.86523438 3.2809375 32.640625 3.3125 C39.6604464 3.3439086 45.8197149 2.6021302 52.56982422 0.64746094 C55 0 55 0 58 0 C58.495 4.95 58.495 4.95 59 10 C39.2 10 19.4 10 -1 10 C-0.67 6.7 -0.34 3.4 0 0 Z " fill="#F4D6B0" transform="translate(200,265)"/>
<path d="M0 0 C9.24 0 18.48 0 28 0 C24 4 24 4 22.375 5.375 C20.43355841 7.66943097 19.8252621 10.1433235 19 13 C15.7 13 12.4 13 9 13 C8.608125 11.55625 8.21625 10.1125 7.8125 8.625 C6.64167927 4.78239303 6.64167927 4.78239303 3.375 2.5625 C2.59125 2.376875 1.8075 2.19125 1 2 C0.67 1.34 0.34 0.68 0 0 Z " fill="#F6D7B1" transform="translate(216,154)"/>
<path d="M0 0 C0.33745354 2.39531756 0.6700829 4.79114268 1 7.1875 C1.09539062 7.86103516 1.19078125 8.53457031 1.2890625 9.22851562 C1.78324613 12.84664577 2.11346131 16.34796401 2 20 C-2.09055747 20.40103505 -4.36554971 20.37797038 -7.9375 18.25 C-11.04604785 13.35168217 -10.40548806 8.64980028 -10 3 C-3.375 0 -3.375 0 0 0 Z " fill="#EDC28E" transform="translate(130,169)"/>
<path d="M0 0 C3.3 0.99 6.6 1.98 10 3 C10.77373974 13.78077374 10.77373974 13.78077374 7.9375 18.25 C4.36554971 20.37797038 2.09055747 20.40103505 -2 20 C-1.33333333 13.33333333 -0.66666667 6.66666667 0 0 Z " fill="#EEC38E" transform="translate(330,169)"/>
<path d="M0 0 C-0.66 2.64 -1.32 5.28 -2 8 C-5.63 8 -9.26 8 -13 8 C-13 6.35 -13 4.7 -13 3 C-2.6 0 -2.6 0 0 0 Z " fill="#E7CAA6" transform="translate(157,161)"/>
<path d="M0 0 C4.29 0.99 8.58 1.98 13 3 C13 4.65 13 6.3 13 8 C9.37 8 5.74 8 2 8 C1.34 5.36 0.68 2.72 0 0 Z " fill="#DEBD97" transform="translate(303,161)"/>
</svg>
